<svg width="249" height="104" viewBox="0 0 249 104" fill="none" xmlns="http://www.w3.org/2000/svg">
<path d="M21.8965 63.9V102H0.896484V4.95H44.6965V23.1H21.8965V46.35H43.1965V63.9H21.8965ZM76.65 19.65C74.55 21.75 72 22.8 69 22.8C66 22.8 63.4 21.75 61.2 19.65C59 17.45 57.9 14.85 57.9 11.85C57.9 8.75 59 6.14999 61.2 4.04999C63.4 1.85 66 0.749998 69 0.749998C72 0.749998 74.55 1.85 76.65 4.04999C78.85 6.14999 79.95 8.75 79.95 11.85C79.95 14.95 78.85 17.55 76.65 19.65ZM58.95 102V28.8H79.05V102H58.95ZM113.264 102H93.1641V28.8H111.464V32.55C114.564 29.05 119.264 27.3 125.564 27.3H128.714C141.114 27.3 147.314 33.9 147.314 47.1V102H127.214V44.7C127.214 43.9 126.914 43.2 126.314 42.6C125.814 42 125.164 41.7 124.364 41.7H116.114C115.314 41.7 114.614 42 114.014 42.6C113.514 43.2 113.264 43.9 113.264 44.7V102ZM198.186 28.8H215.136V102H198.186V96.6C195.086 101.2 189.936 103.5 182.736 103.5H179.586C167.186 103.5 160.986 96.9 160.986 83.7V47.1C160.986 33.9 167.186 27.3 179.586 27.3H182.736C189.936 27.3 195.086 29.6 198.186 34.2V28.8ZM195.036 86.1V44.7C195.036 43.9 194.736 43.2 194.136 42.6C193.636 42 192.986 41.7 192.186 41.7H183.936C183.136 41.7 182.436 42 181.836 42.6C181.336 43.2 181.086 43.9 181.086 44.7V86.1C181.086 86.9 181.336 87.6 181.836 88.2C182.436 88.8 183.136 89.1 183.936 89.1H192.186C192.986 89.1 193.636 88.8 194.136 88.2C194.736 87.6 195.036 86.9 195.036 86.1ZM248.909 102H228.809V4.95H248.909V102Z" fill="#DAD7D7"/>
</svg>
