<svg width="312" height="187" viewBox="0 0 312 187" fill="none" xmlns="http://www.w3.org/2000/svg">
<path d="M47.8151 186.09C39.0751 186.09 31.0317 184.633 23.6851 181.72C16.4651 178.807 10.7017 174.563 6.39508 168.99C2.21508 163.29 0.125078 156.577 0.125078 148.85C0.125078 136.817 3.73508 126.43 10.9551 117.69C13.1084 115.03 15.4517 112.497 17.9851 110.09C20.5184 107.683 22.5451 106.48 24.0651 106.48C26.4717 106.48 27.6751 107.557 27.6751 109.71C27.6751 110.723 27.4217 111.61 26.9151 112.37C20.5817 118.07 16.0217 123.58 13.2351 128.9C10.5751 134.22 9.24508 139.983 9.24508 146.19C9.24508 156.83 12.9817 164.747 20.4551 169.94C28.0551 175.133 37.4917 177.73 48.7651 177.73C55.9851 177.73 62.3184 175.893 67.7651 172.22C73.3384 168.42 77.5817 163.353 80.4951 157.02C83.5351 150.687 85.0551 143.847 85.0551 136.5C85.0551 125.353 79.9251 107.937 69.6651 84.25C59.4051 60.31 54.2751 43.6533 54.2751 34.28C54.2751 24.5267 56.6184 16.42 61.3051 9.95999C65.9918 3.49999 72.7051 0.269987 81.4451 0.269987C88.1584 0.269987 93.7317 1.97999 98.1651 5.39999C102.725 8.69333 106.082 12.4933 108.235 16.8C110.388 20.98 111.465 24.4 111.465 27.06C111.465 28.3267 110.895 29.4667 109.755 30.48C108.742 31.3667 107.665 31.81 106.525 31.81C104.625 31.81 103.485 30.67 103.105 28.39C102.218 22.5633 99.8117 17.75 95.8851 13.95C91.9584 10.15 87.1451 8.24999 81.4451 8.24999C75.7451 8.24999 71.3117 10.2767 68.1451 14.33C64.9784 18.2567 63.3951 23.1967 63.3951 29.15C63.3951 37.51 64.6617 45.68 67.1951 53.66C69.7284 61.5133 73.5917 71.4567 78.7851 83.49C83.8517 95.0167 87.6517 104.833 90.1851 112.94C92.8451 120.92 94.1751 129.09 94.1751 137.45C94.1751 145.557 92.5918 153.347 89.4251 160.82C86.2584 168.167 81.1917 174.247 74.2251 179.06C67.2584 183.747 58.4551 186.09 47.8151 186.09ZM184.501 184.38C181.587 184.38 178.864 182.86 176.331 179.82C173.924 176.653 172.721 173.297 172.721 169.75C172.721 161.897 174.811 148.597 178.991 129.85C175.824 136.69 171.707 143.72 166.641 150.94C161.701 158.033 156.824 164.303 152.011 169.75C147.197 175.197 143.651 178.743 141.371 180.39C138.204 182.797 134.721 184 130.921 184C123.701 184 120.091 179.44 120.091 170.32C120.091 161.453 123.447 150.433 130.161 137.26C136.874 123.96 144.854 112.433 154.101 102.68C163.347 93.0533 170.821 88.24 176.521 88.24C182.347 88.24 185.641 90.7733 186.401 95.84C186.781 97.36 186.971 99.0067 186.971 100.78C187.604 100.4 188.301 100.21 189.061 100.21C191.974 100.21 193.431 101.603 193.431 104.39V105.15L191.151 113.51C189.377 119.843 187.541 129.217 185.641 141.63C183.741 154.043 182.791 164.367 182.791 172.6L184.691 173.74C187.731 175.64 189.251 177.54 189.251 179.44C189.251 180.707 188.807 181.847 187.921 182.86C187.034 183.873 185.894 184.38 184.501 184.38ZM132.441 174.12C133.834 174.12 134.974 173.677 135.861 172.79C148.781 161.77 160.244 146.507 170.251 127C174.557 118.893 177.217 113.573 178.231 111.04C179.371 108.507 179.941 106.037 179.941 103.63C179.941 102.363 179.624 101.223 178.991 100.21C178.357 99.1967 177.534 98.69 176.521 98.69C175.254 98.69 173.607 99.26 171.581 100.4C166.514 103.06 160.497 108.697 153.531 117.31C146.691 125.923 141.054 135.043 136.621 144.67C131.934 154.423 129.591 163.1 129.591 170.7C129.591 172.98 130.541 174.12 132.441 174.12ZM224.822 185.52C220.262 185.52 216.779 184.317 214.372 181.91C212.092 179.503 210.952 176.337 210.952 172.41C210.952 168.99 211.142 165.887 211.522 163.1C211.902 160.187 212.599 155.69 213.612 149.61C215.639 137.83 218.236 124.403 221.402 109.33L226.342 85.39C237.236 33.33 243.062 6.03332 243.822 3.49999C244.456 1.47333 245.849 0.459996 248.002 0.459996C250.662 0.459996 251.992 1.91666 251.992 4.83L251.232 9.76999C250.599 13.8233 249.902 17.6233 249.142 21.17C248.382 24.59 246.989 31.24 244.962 41.12C241.542 57.08 237.172 77.6 231.852 102.68C226.659 127.76 223.366 144.48 221.972 152.84C220.326 161.96 219.502 167.66 219.502 169.94C219.502 171.84 220.072 173.55 221.212 175.07C222.352 176.59 223.746 177.35 225.392 177.35C227.166 177.35 228.812 177.033 230.332 176.4C231.979 175.64 233.056 175.133 233.562 174.88L236.792 173.17C237.806 172.663 238.439 172.41 238.692 172.41C241.479 172.41 242.872 173.803 242.872 176.59C242.872 179.377 241.099 181.593 237.552 183.24C234.006 184.76 229.762 185.52 224.822 185.52ZM277.213 185.9C273.16 185.9 269.993 185.267 267.713 184C265.433 182.607 263.597 180.517 262.203 177.73C259.543 172.79 258.213 166.837 258.213 159.87C258.213 147.71 260.05 136.183 263.723 125.29C267.397 114.27 272.4 105.023 278.733 97.55C284.813 90.4567 291.463 86.91 298.683 86.91C302.483 86.91 305.46 88.4933 307.613 91.66C309.893 94.7 311.033 98.4367 311.033 102.87C311.033 110.597 309.007 117.31 304.953 123.01C301.027 128.71 295.707 133.46 288.993 137.26C283.167 140.68 276.073 144.1 267.713 147.52L267.333 161.2C267.333 171.84 270.563 177.16 277.023 177.16C279.683 177.16 282.217 176.653 284.623 175.64C287.157 174.627 289.88 173.233 292.793 171.46C296.213 169.433 298.62 168.42 300.013 168.42C302.167 168.42 303.243 169.56 303.243 171.84C303.243 173.487 301.66 175.45 298.493 177.73C295.453 180.01 291.843 181.973 287.663 183.62C283.483 185.14 280 185.9 277.213 185.9ZM269.233 138.4C277.72 134.98 284.18 131.94 288.613 129.28C293.047 126.62 296.403 123.263 298.683 119.21C301.09 115.157 302.293 109.837 302.293 103.25C302.293 98.31 300.203 95.84 296.023 95.84C292.35 95.84 288.043 99.1967 283.103 105.91C277.91 112.623 273.73 121.427 270.563 132.32C269.677 135.36 269.233 137.387 269.233 138.4Z" fill="#F80000"/>
</svg>
